<svg xmlns="http://www.w3.org/2000/svg" viewBox="0 0 54.6 55.96"><defs><style>.cls-1{fill:#474747;}.cls-2{fill:#00acc3;}</style></defs><g id="Layer_2" data-name="Layer 2"><g id="图层_1" data-name="图层 1"><path class="cls-1" d="M14.47,54.59A14.47,14.47,0,0,1,4.23,29.88L29.89,4.24A14.48,14.48,0,1,1,50.36,24.72L24.71,50.37a14.45,14.45,0,0,1-10.24,4.22ZM6.7,47.89a11,11,0,0,0,15.55,0L47.89,22.26A11,11,0,0,0,32.34,6.71L6.7,32.34a11,11,0,0,0,0,15.55Z"/><path class="cls-2" d="M35.75,37.83a1.71,1.71,0,0,1-1.24-.54L17.39,20a1.75,1.75,0,1,1,2.48-2.47L37,34.85a1.75,1.75,0,0,1-1.24,3Z"/><path class="cls-1" d="M32.06,16.39a1.74,1.74,0,0,1-1.23-3l5.74-5.73a1.76,1.76,0,0,1,1.7-.5,1.74,1.74,0,0,1,.75,3l-5.73,5.79a1.78,1.78,0,0,1-1.23.45Z"/><path class="cls-2" d="M40.05,44.24a1.7,1.7,0,1,1-1.7-1.7A1.7,1.7,0,0,1,40.05,44.24Z"/><path class="cls-2" d="M45,44.24a1.7,1.7,0,1,1-1.69-1.7A1.7,1.7,0,0,1,45,44.24Z"/><path class="cls-2" d="M51.2,42.54a1.7,1.7,0,1,1-1.7-1.7A1.7,1.7,0,0,1,51.2,42.54Z"/><path class="cls-2" d="M49,48.22a1.7,1.7,0,1,1-1.7-1.7A1.7,1.7,0,0,1,49,48.22Z"/><path class="cls-2" d="M43.28,50.43a1.7,1.7,0,1,1-1.7-1.7A1.7,1.7,0,0,1,43.28,50.43Z"/><path class="cls-2" d="M46.67,53.39a1.7,1.7,0,1,1-1.7-1.7A1.7,1.7,0,0,1,46.67,53.39Z"/><path class="cls-2" d="M52.9,53.39a1.7,1.7,0,1,1-1.7-1.7A1.7,1.7,0,0,1,52.9,53.39Z"/><path class="cls-2" d="M40.05,54.26a1.7,1.7,0,1,1-1.7-1.7A1.7,1.7,0,0,1,40.05,54.26Z"/><circle class="cls-2" cx="36.65" cy="49.25" r="1.7"/></g></g></svg>