<svg xmlns="http://www.w3.org/2000/svg" viewBox="0 0 58.39 65.56"><defs><style>.cls-1{fill:#fff;stroke:#fff;stroke-miterlimit:10;stroke-width:0.71px;}</style></defs><g id="Layer_2" data-name="Layer 2"><g id="图层_1" data-name="图层 1"><path class="cls-1" d="M7.38,65.21a11.25,11.25,0,0,1-1.63-.81,3.41,3.41,0,0,1-1.38-2.66q-.58-7-1.18-14T2,33.6Q1.38,26.54.79,19.47C.65,17.83.5,16.19.37,14.55a4.25,4.25,0,0,1,0-1.13,1.82,1.82,0,0,1,2.34-1.51l.58.17c-.05-.62-.09-1.2-.13-1.77-.14-1.6-.26-3.2-.43-4.79A3.36,3.36,0,0,1,6,1.51Q12.7.91,19.42.37a3.25,3.25,0,0,1,3.68,3c.32,3.32.58,6.65.87,10,.37,4.25.72,8.49,1.11,12.74a1.57,1.57,0,0,0,.41.87,6.55,6.55,0,0,1,1.77,4c.41,4.71.85,9.42,1.27,14.13,0,.06,0,.12.07.26H44a3.23,3.23,0,0,1,3.6,3.48l0,.42h6.75A3.35,3.35,0,0,1,58,52.91v4.75a3.34,3.34,0,0,1-3.63,3.63H47.6c0,.22,0,.39-.05.55a3.28,3.28,0,0,1-2.5,3.25,2.52,2.52,0,0,0-.29.12Zm-4.84-51c0,.46,0,.77.07,1.08.27,3.28.56,6.56.84,9.84Q4,31.35,4.51,37.58,5.05,44,5.6,50.38c.31,3.66.61,7.32.93,11,.12,1.29.58,1.67,1.9,1.67h18.8c.23,0,.45,0,.67,0,0-.29,0-.5,0-.71q-.39-4.44-.8-8.88-.54-6-1.09-11.92-.47-5.19-.94-10.4a4.25,4.25,0,0,0-2-3.31Q13.39,21.4,3.78,15ZM30.16,63H43.82c1.1,0,1.56-.38,1.56-1.36q0-6.44,0-12.86c0-.94-.42-1.32-1.37-1.32H29.45l-.7,0C29.22,52.7,29.69,57.83,30.16,63ZM5.28,9c.11,1.38.24,2.66.32,3.94a1.17,1.17,0,0,0,.59,1q8,5.26,15.93,10.56l.65.39c-.5-5.82-1-11.52-1.47-17.27Zm42.3,50.09c2.42,0,4.76,0,7.1,0,.75,0,1.13-.48,1.14-1.31,0-1.68,0-3.37,0-5.06,0-1-.4-1.35-1.35-1.35H48a3.56,3.56,0,0,0-.43,0ZM21,5.5a1.32,1.32,0,0,0,.07-.23c0-.46-.07-.92-.11-1.39-.11-1.06-.52-1.4-1.57-1.31l-9.84.82c-1.2.1-2.4.2-3.59.34a1,1,0,0,0-1,1.07c0,.66.08,1.32.13,2.06Z"/><path class="cls-1" d="M16.82,54.71h4.56c.39,0,.82,0,.83.53s-.42.56-.82.56H12.08c-.4,0-.81,0-.8-.57s.4-.53.79-.53Z"/><path class="cls-1" d="M16.72,58.22H12.1c-.4,0-.82,0-.82-.54s.42-.56.82-.56h9.29c.39,0,.82,0,.82.54s-.42.55-.82.55Z"/><path class="cls-1" d="M16.75,52.29h4.69c.38,0,.76,0,.77.53s-.38.55-.76.55H12c-.38,0-.76-.07-.74-.57s.41-.51.79-.51Z"/></g></g></svg>