<svg xmlns="http://www.w3.org/2000/svg" viewBox="0 0 30.62 74.14"><defs><style>.cls-1{fill:#fff;stroke:#fff;stroke-miterlimit:10;stroke-width:0.71px;}</style></defs><g id="Layer_2" data-name="Layer 2"><g id="图层_1" data-name="图层 1"><path class="cls-1" d="M21.37,25.41H9.25L12.49,2.8a2.85,2.85,0,0,1,5.64,0ZM10.06,24.7h10.5L17.43,2.9a2.14,2.14,0,0,0-4.24,0Z"/><path class="cls-1" d="M28.87,29.43H1.75a1.4,1.4,0,1,1,0-2.79H28.87a1.4,1.4,0,1,1,0,2.79ZM1.75,27.34a.7.7,0,0,0,0,1.39H28.87a.7.7,0,0,0,0-1.39Z"/><path class="cls-1" d="M19.93,35.49H10.69a3.35,3.35,0,0,1-3.35-3.34V30.66H23.28v1.49A3.35,3.35,0,0,1,19.93,35.49ZM8.05,31.37v.78a2.64,2.64,0,0,0,2.64,2.64h9.24a2.64,2.64,0,0,0,2.64-2.64v-.78Z"/><path class="cls-1" d="M22.66,43H7.35A2.32,2.32,0,0,1,5,40.66V39.13a2.32,2.32,0,0,1,2.32-2.32H22.66A2.32,2.32,0,0,1,25,39.13v1.53A2.32,2.32,0,0,1,22.66,43ZM7.35,37.52a1.62,1.62,0,0,0-1.62,1.61v1.53a1.62,1.62,0,0,0,1.62,1.61H22.66a1.61,1.61,0,0,0,1.61-1.61V39.13a1.61,1.61,0,0,0-1.61-1.61Z"/><path class="cls-1" d="M22.9,73.78H7.1a4.23,4.23,0,0,1-4.38-4v-15a10.88,10.88,0,0,1,4.17-8.44l-.76-1.7H23.87l-.76,1.7a10.88,10.88,0,0,1,4.17,8.44v15A4.23,4.23,0,0,1,22.9,73.78ZM7.22,45.28l.54,1.22-.22.17a10.18,10.18,0,0,0-4.11,8v15A3.52,3.52,0,0,0,7.1,73.08H22.9a3.52,3.52,0,0,0,3.67-3.33v-15a10.18,10.18,0,0,0-4.11-8l-.22-.17.55-1.22Z"/><rect class="cls-1" x="16.3" y="37.16" width="3.97" height="5.46"/><rect class="cls-1" x="13.2" y="37.16" width="1.28" height="5.46"/></g></g></svg>