<svg xmlns="http://www.w3.org/2000/svg" viewBox="0 0 30.91 74.41"><defs><style>.cls-1{fill:#474747;stroke:#474747;stroke-width:0.98px;}.cls-1,.cls-2{stroke-miterlimit:10;}.cls-2,.cls-3{fill:#00acc3;}.cls-2{stroke:#00acc3;}</style></defs><g id="Layer_2" data-name="Layer 2"><g id="图层_1" data-name="图层 1"><path class="cls-1" d="M21.52,25.54H9.39L12.64,2.93a2.85,2.85,0,0,1,5.64,0Zm-11.31-.7h10.5L17.58,3a2.15,2.15,0,0,0-4.25,0Z"/><path class="cls-2" d="M29,29.57H1.9a1.4,1.4,0,1,1,0-2.79H29a1.4,1.4,0,0,1,0,2.79ZM1.9,27.48a.69.69,0,1,0,0,1.38H29a.69.69,0,0,0,0-1.38Z"/><path class="cls-1" d="M20.08,35.63H10.83a3.35,3.35,0,0,1-3.34-3.34V30.8H23.42v1.49A3.35,3.35,0,0,1,20.08,35.63ZM8.19,31.5v.79a2.65,2.65,0,0,0,2.64,2.64h9.25a2.65,2.65,0,0,0,2.64-2.64V31.5Z"/><path class="cls-1" d="M22.8,43.11H7.49a2.31,2.31,0,0,1-2.31-2.32V39.26A2.31,2.31,0,0,1,7.49,37H22.8a2.32,2.32,0,0,1,2.32,2.31v1.53A2.32,2.32,0,0,1,22.8,43.11ZM7.49,37.65a1.61,1.61,0,0,0-1.61,1.61v1.53A1.61,1.61,0,0,0,7.49,42.4H22.8a1.61,1.61,0,0,0,1.61-1.61V39.26a1.61,1.61,0,0,0-1.61-1.61Z"/><path class="cls-1" d="M23,73.92H7.25a4.23,4.23,0,0,1-4.38-4v-15A10.85,10.85,0,0,1,7,46.42l-.77-1.7H24l-.76,1.7a10.84,10.84,0,0,1,4.16,8.44v15A4.22,4.22,0,0,1,23,73.92ZM7.36,45.42l.54,1.22-.21.17a10.15,10.15,0,0,0-4.12,8v15a3.52,3.52,0,0,0,3.68,3.33H23a3.52,3.52,0,0,0,3.68-3.33v-15a10.17,10.17,0,0,0-4.11-8l-.22-.17.54-1.22Z"/><rect class="cls-3" x="16.44" y="37.3" width="3.97" height="5.46"/><rect class="cls-3" x="13.35" y="37.3" width="1.28" height="5.46"/></g></g></svg>