<svg xmlns="http://www.w3.org/2000/svg" viewBox="0 0 44.55 79.99"><defs><style>.cls-1{fill:#fff;stroke:#fff;stroke-miterlimit:10;stroke-width:0.71px;}</style></defs><g id="Layer_2" data-name="Layer 2"><g id="图层_1" data-name="图层 1"><path class="cls-1" d="M30.09,40.31A1.28,1.28,0,0,1,28.81,39V31.19a11.56,11.56,0,0,0-2-6.49L19.27,13.62a11.73,11.73,0,0,0-9.7-5.13H1.82a1.18,1.18,0,0,1,0-2.35H11a12.33,12.33,0,0,1,10.2,5.4l8.39,12.33c1.21,1.79,1.8,4.39,1.8,8V39A1.28,1.28,0,0,1,30.09,40.31ZM1.82,6.53a.79.79,0,0,0,0,1.57H9.57a12.08,12.08,0,0,1,10,5.3l7.54,11.08a11.91,11.91,0,0,1,2.07,6.71V39A.9.9,0,0,0,31,39V31.82c0-3.48-.57-6-1.74-7.73L20.86,11.75A11.94,11.94,0,0,0,11,6.53Z"/><path class="cls-1" d="M29.19,38.61H10.61a8.06,8.06,0,0,1-8-8V8.1h7a12.08,12.08,0,0,1,10,5.3l7.54,11.08a11.91,11.91,0,0,1,2.07,6.71ZM3,8.49V30.56a7.68,7.68,0,0,0,7.66,7.67h18.2v-7a11.56,11.56,0,0,0-2-6.49L19.27,13.62a11.73,11.73,0,0,0-9.7-5.13Z"/><path class="cls-1" d="M18.28,43.12H12V39.55h6.31Zm-5.92-.34H17.9V39.89H12.36Z"/><path class="cls-1" d="M22,44.87H8.26a.55.55,0,0,1-.55-.54.55.55,0,0,1,.55-.55H22a.55.55,0,0,1,.55.55A.55.55,0,0,1,22,44.87ZM8.26,44.16a.17.17,0,0,0-.16.17.16.16,0,0,0,.16.16H22a.17.17,0,0,0,.17-.16.18.18,0,0,0-.17-.17Z"/><path class="cls-1" d="M16.42,73.42H12.23c-.51,0-.92-.62-1-1.44l-.54-15.79h7.11L17.38,72C17.35,72.79,16.94,73.42,16.42,73.42ZM11.14,56.57,11.66,72c0,.65.32,1.08.57,1.08h4.19c.26,0,.56-.44.58-1.09l.46-15.38Z"/><path class="cls-1" d="M22,54.71H8.3V46.19H22ZM8.68,54.05H21.57v-7.2H8.68Z"/><path class="cls-1" d="M16.78,51.3H8.49c-.11,0-.19-.14-.19-.33s.08-.32.19-.32h8.29c.11,0,.19.14.19.32S16.89,51.3,16.78,51.3Z"/><path class="cls-1" d="M19.15,51.3H18c-.11,0-.19-.14-.19-.33s.08-.32.19-.32h1.11c.11,0,.19.14.19.32S19.26,51.3,19.15,51.3Z"/><path class="cls-1" d="M21.76,51.3H20.13c-.11,0-.19-.14-.19-.33s.08-.32.19-.32h1.63c.11,0,.19.14.19.32S21.87,51.3,21.76,51.3Z"/><path class="cls-1" d="M.55,67.09H.35V56.66c0-4,2.8-7.29,6.23-7.29h.2v3.35h-.2c-1.81,0-3.29,1.75-3.29,3.91v7.26A3,3,0,0,1,.55,67.09ZM6.39,49.76c-3.13.12-5.65,3.17-5.65,6.9v10a2.66,2.66,0,0,0,2.17-2.8V56.63a4.05,4.05,0,0,1,3.48-4.28Z"/><path class="cls-1" d="M16.08,75.87H12.51V74.35h3.57Zm-3.18-.39h2.8v-.75H12.9Z"/><path class="cls-1" d="M16.08,77.73H12.51V76.22h3.57Zm-3.18-.38h2.8V76.6H12.9Z"/><path class="cls-1" d="M16.08,79.64H12.51V78.12h3.57Zm-3.18-.38h2.8v-.75H12.9Z"/><path class="cls-1" d="M32.39,2a3.16,3.16,0,0,1,2.9-.24.46.46,0,0,0,.4,0,.56.56,0,0,0,0-.78.72.72,0,0,0-.38-.3h0a4,4,0,0,0-3.65.3,4,4,0,0,0-1.6,3.29A3.2,3.2,0,0,1,28.8,6.85a3.19,3.19,0,0,1-2.87.26.4.4,0,0,0-.4,0,.56.56,0,0,0,0,.77.75.75,0,0,0,.36.29h0a4,4,0,0,0,3.65-.3,4,4,0,0,0,1.6-3.29A3.22,3.22,0,0,1,32.39,2Z"/><path class="cls-1" d="M36.57,8.09a3.17,3.17,0,0,1,2.89-.24.4.4,0,0,0,.4,0,.57.57,0,0,0,0-.78.84.84,0,0,0-.39-.3h0a4,4,0,0,0-3.64.31,4,4,0,0,0-1.61,3.28A3.22,3.22,0,0,1,33,13a3.19,3.19,0,0,1-2.87.25.4.4,0,0,0-.4,0,.56.56,0,0,0,0,.78.74.74,0,0,0,.35.29h0A4,4,0,0,0,33.68,14a4,4,0,0,0,1.61-3.28,3.17,3.17,0,0,1,1.28-2.62Z"/><path class="cls-1" d="M37.85,20.1a4.05,4.05,0,0,0,1.61-3.29,3.15,3.15,0,0,1,1.28-2.61,3.19,3.19,0,0,1,2.9-.25.39.39,0,0,0,.39,0,.56.56,0,0,0,0-.77.73.73,0,0,0-.39-.3h0a4,4,0,0,0-3.64.3,4,4,0,0,0-1.61,3.29,2.94,2.94,0,0,1-4.15,2.86.43.43,0,0,0-.4,0,.56.56,0,0,0,0,.78.77.77,0,0,0,.36.29h0a4,4,0,0,0,3.64-.3Z"/></g></g></svg>