<svg xmlns="http://www.w3.org/2000/svg" viewBox="0 0 32.15 74.2"><defs><style>.cls-1,.cls-3,.cls-4{fill:#474747;stroke:#474747;}.cls-1,.cls-2,.cls-3,.cls-4{stroke-miterlimit:10;}.cls-1{stroke-width:1.13px;}.cls-2{fill:none;stroke:#00acc3;}.cls-3{stroke-width:0.71px;}.cls-4{stroke-width:0.28px;}</style></defs><g id="Layer_2" data-name="Layer 2"><g id="图层_1" data-name="图层 1"><path class="cls-1" d="M30.3,34.74A1.28,1.28,0,0,1,29,33.45V25.62a11.49,11.49,0,0,0-2-6.5L19.48,8a11.73,11.73,0,0,0-9.7-5.13H2A1.17,1.17,0,0,1,2,.57H11.2A12.31,12.31,0,0,1,21.39,6l8.39,12.33c1.22,1.79,1.81,4.39,1.81,8v7.2A1.29,1.29,0,0,1,30.3,34.74ZM2,1A.79.79,0,0,0,2,2.53H9.78a12.12,12.12,0,0,1,10,5.29L27.33,18.9a11.85,11.85,0,0,1,2.07,6.72v7.83a.9.9,0,0,0,1.8,0v-7.2c0-3.49-.57-6-1.74-7.74L21.07,6.18A11.91,11.91,0,0,0,11.2,1Z"/><path class="cls-1" d="M29.4,33H10.83a8.06,8.06,0,0,1-8-8V2.53h7a12.12,12.12,0,0,1,10,5.29L27.33,18.9a11.85,11.85,0,0,1,2.07,6.72ZM3.16,2.91V25a7.68,7.68,0,0,0,7.67,7.67H29v-7a11.49,11.49,0,0,0-2-6.5L19.48,8a11.73,11.73,0,0,0-9.7-5.13Z"/><path class="cls-2" d="M18.49,37.54h-6.3V34h6.3Zm-5.92-.34h5.54V34.32H12.57Z"/><path class="cls-3" d="M22.21,39.29H8.47a.54.54,0,0,1-.54-.54.55.55,0,0,1,.54-.55H22.21a.55.55,0,0,1,.54.55A.54.54,0,0,1,22.21,39.29Zm-13.74-.7a.16.16,0,0,0,0,.32H22.21a.16.16,0,1,0,0-.32Z"/><path class="cls-1" d="M16.64,67.84H12.45c-.52,0-.93-.62-1-1.44L11,50.61h7.11l-.47,15.78C17.57,67.22,17.16,67.84,16.64,67.84ZM11.35,51l.53,15.38c0,.65.31,1.08.57,1.08h4.19c.26,0,.55-.44.57-1.08L17.67,51Z"/><path class="cls-1" d="M22.17,49.13H8.51V40.61H22.17ZM8.89,48.47H21.78v-7.2H8.89Z"/><path class="cls-2" d="M17,45.73H8.7c-.1,0-.19-.15-.19-.33s.09-.33.19-.33H17c.11,0,.19.15.19.33S17.1,45.73,17,45.73Z"/><path class="cls-2" d="M19.36,45.73H18.25c-.1,0-.19-.15-.19-.33s.09-.33.19-.33h1.11c.11,0,.19.15.19.33S19.47,45.73,19.36,45.73Z"/><path class="cls-2" d="M22,45.73H20.34c-.11,0-.19-.15-.19-.33s.08-.33.19-.33H22c.11,0,.2.15.2.33S22.08,45.73,22,45.73Z"/><path class="cls-1" d="M.76,61.51H.57V51.08c0-4,2.79-7.29,6.23-7.29H7v3.36H6.8c-1.82,0-3.3,1.75-3.3,3.9v7.26A3,3,0,0,1,.76,61.51ZM6.6,44.18C3.47,44.3,1,47.35,1,51.08v10a2.68,2.68,0,0,0,2.17-2.81V51.05A4.06,4.06,0,0,1,6.6,46.77Z"/><path class="cls-4" d="M16.29,70.29H12.73V68.77h3.56Zm-3.18-.38h2.8v-.75h-2.8Z"/><path class="cls-4" d="M16.29,72.15H12.73V70.64h3.56Zm-3.18-.38h2.8V71h-2.8Z"/><path class="cls-4" d="M16.29,74.06H12.73V72.55h3.56Zm-3.18-.38h2.8v-.75h-2.8Z"/></g></g></svg>