<svg xmlns="http://www.w3.org/2000/svg" viewBox="0 0 49.25 46"><defs><style>.cls-1{fill:#00acc3;}</style></defs><g id="Layer_2" data-name="Layer 2"><g id="图层_1" data-name="图层 1"><path class="cls-1" d="M24.35,46a.77.77,0,0,1-.67-.37v0L.39,16.34A2.43,2.43,0,0,1,.23,14L7,1.22A2.6,2.6,0,0,1,9.09,0H40.24a2.54,2.54,0,0,1,2,1.24l6.79,13a2.46,2.46,0,0,1-.26,2.36L27.09,43.24H27L25,45.61v0a.77.77,0,0,1-.66.37ZM26,39.6l.47.27L46.8,15h-11Zm-3.76,0,.47-.27L13.1,15H2.58Zm2.15-2.88L33,15H15.68ZM36.71,12.46h8.37L40.43,3.33Zm-19.77,0H32L24.47,2.38Zm-13,0h8.13L8.62,3.67Zm10.8-.12,7.19-9.78H10.69Zm19.33-.25L38,2.56H27.07Z"/></g></g></svg>