<svg xmlns="http://www.w3.org/2000/svg" viewBox="0 0 51.78 47.55"><defs><style>.cls-1{fill:#00acc3;stroke:#00acc3;stroke-miterlimit:10;}</style></defs><g id="Layer_2" data-name="Layer 2"><g id="图层_1" data-name="图层 1"><path class="cls-1" d="M43.56,16.11c-1-.39-2-.74-3.05-1,.28-1.11.5-2.19.66-3.23.83-5.42-.09-9.22-2.59-10.7A4.78,4.78,0,0,0,36.1.5c-2.9,0-6.57,2.22-10.27,6-.78-.78-1.59-1.53-2.43-2.24-4.15-3.45-7.81-4.53-10.31-3-1.6,1-2.58,2.89-2.82,5.62a.83.83,0,0,0,.73.91A.82.82,0,0,0,11.88,7c.14-1.51.6-3.49,2-4.33,1.85-1.1,4.94,0,8.48,2.9.77.64,1.54,1.36,2.31,2.14a55,55,0,0,0-4.58,5.81,51.74,51.74,0,0,0-7.37,1.22,30.28,30.28,0,0,1-.81-4.54.81.81,0,0,0-.29-.56A.86.86,0,0,0,11,9.4a.84.84,0,0,0-.73.91,34.13,34.13,0,0,0,.86,4.8c-1,.3-2,.63-2.95,1-5,2-7.72,4.68-7.72,7.65s2.74,5.68,7.72,7.65a32,32,0,0,0,3,1c-.27,1.07-.49,2.15-.66,3.23-.83,5.42.09,9.22,2.58,10.7a4.81,4.81,0,0,0,2.48.65c2.87,0,6.49-2.17,10.15-5.84.79.79,1.57,1.52,2.36,2.17,2.93,2.44,5.62,3.7,7.83,3.7a4.8,4.8,0,0,0,2.47-.65c2.5-1.49,3.42-5.29,2.59-10.7-.16-1-.39-2.12-.66-3.23A30.62,30.62,0,0,0,45,30.81a.85.85,0,0,0,.4-1.11.76.76,0,0,0-.45-.43.79.79,0,0,0-.62,0A28,28,0,0,1,40,30.86a54,54,0,0,0-2.59-7,55.47,55.47,0,0,0,2.7-7.22c6,1.73,9.58,4.47,9.58,7.09,0,1.69-1.44,3.09-2.65,4a.85.85,0,0,0-.19,1.16.8.8,0,0,0,.52.34.83.83,0,0,0,.61-.14c2.18-1.58,3.33-3.42,3.33-5.33,0-3-2.74-5.68-7.72-7.65ZM36.1,2.17a3.24,3.24,0,0,1,1.67.42c1.85,1.1,2.5,4.38,1.8,9-.17,1-.37,2.06-.63,3.07a50.84,50.84,0,0,0-7.4-1.2A52.8,52.8,0,0,0,27,7.66c.29-.3.57-.58.86-.85,3.16-3,6.1-4.64,8.28-4.64ZM25.83,8.85a51.59,51.59,0,0,1,3.6,4.46,61.77,61.77,0,0,0-7.2,0,53.16,53.16,0,0,1,3.6-4.46Zm0,30A50,50,0,0,1,22.1,34.2a63.85,63.85,0,0,0,7.45,0,51.32,51.32,0,0,1-3.73,4.6Zm.07-6.16c-1.74,0-3.41-.07-5-.2q-1.36-2.06-2.58-4.22t-2.23-4.35A65.23,65.23,0,0,1,21,15.06c1.62-.13,3.24-.19,4.87-.19s3.24.07,4.75.18q1.39,2.1,2.63,4.29c.83,1.49,1.61,3,2.32,4.54a64.89,64.89,0,0,1-4.82,8.57c-1.63.13-3.25.2-4.88.2Zm-7.09-.41a45.08,45.08,0,0,1-5.53-1,52.11,52.11,0,0,1,1.93-5.42,64.75,64.75,0,0,0,3.6,6.4Zm.13-17a65.84,65.84,0,0,0-3.73,6.66,51.21,51.21,0,0,1-2-5.64,46.59,46.59,0,0,1,5.76-1ZM2.12,23.76c0-2.61,3.53-5.33,9.48-7.06a55.35,55.35,0,0,0,2.68,7.18,53.94,53.94,0,0,0-2.58,7c-6-1.73-9.58-4.47-9.58-7.09ZM15.67,45.35A3.26,3.26,0,0,1,14,44.93c-1.84-1.1-2.5-4.38-1.79-9a31,31,0,0,1,.63-3.07A51.88,51.88,0,0,0,20,34a53.83,53.83,0,0,0,4.71,6l-.73.71c-3.16,3-6.1,4.64-8.29,4.64ZM39.46,36c.71,4.62.06,7.9-1.79,9s-4.94,0-8.47-2.9c-.78-.65-1.53-1.33-2.24-2a55.65,55.65,0,0,0,4.71-6,51.26,51.26,0,0,0,7.17-1.17c.26,1.06.47,2.09.62,3.08ZM38.4,31.27a49.35,49.35,0,0,1-5.54,1,68.24,68.24,0,0,0,3.6-6.41,50.89,50.89,0,0,1,1.94,5.43Zm-1.93-9.34a65.23,65.23,0,0,0-3.75-6.68,45.53,45.53,0,0,1,5.79,1,52.51,52.51,0,0,1-2,5.67ZM25.89,19.54a4.23,4.23,0,1,0,4.23,4.23,4.23,4.23,0,0,0-4.23-4.23Zm0,6.77a2.54,2.54,0,1,1,2.54-2.54,2.54,2.54,0,0,1-2.54,2.54Z"/></g></g></svg>