<svg xmlns="http://www.w3.org/2000/svg" viewBox="0 0 53.36 46.55"><defs><style>.cls-1{fill:#00acc3;}</style></defs><g id="Layer_2" data-name="Layer 2"><g id="图层_1" data-name="图层 1"><path class="cls-1" d="M37.92,0A15.36,15.36,0,0,1,53.36,15.27c0,4-2.57,8.28-7.54,13.06L27.87,46.05a1.69,1.69,0,0,1-2.39,0L7.55,28.34C2.57,23.55,0,19.23,0,15.27A15.47,15.47,0,0,1,26.48,4.6l.2.2.19-.2L27,4.45l.19-.21A1.74,1.74,0,0,1,27.51,4a15.47,15.47,0,0,1,9.77-4Zm0,3.41a12.07,12.07,0,0,0-9.86,5.05,1.62,1.62,0,0,1-.55.49l-7.63,8.29a1.71,1.71,0,0,1-2.67-2.11l.16-.2,7-7.61a12.09,12.09,0,0,0-8.94-3.91,11.94,11.94,0,0,0-12,11.86c0,2.83,2.12,6.4,6.51,10.63L26.68,42.45,44,25.34c3.82-3.79,5.76-7.06,5.93-9.69v-.38a11.94,11.94,0,0,0-12-11.86Z"/></g></g></svg>