<?xml version="1.0" encoding="UTF-8" standalone="no"?>
<svg
   xmlns:dc="http://purl.org/dc/elements/1.1/"
   xmlns:cc="http://creativecommons.org/ns#"
   xmlns:rdf="http://www.w3.org/1999/02/22-rdf-syntax-ns#"
   xmlns:svg="http://www.w3.org/2000/svg"
   xmlns="http://www.w3.org/2000/svg"
   xmlns:sodipodi="http://sodipodi.sourceforge.net/DTD/sodipodi-0.dtd"
   xmlns:inkscape="http://www.inkscape.org/namespaces/inkscape"
   width="102.97783mm"
   height="48.145348mm"
   viewBox="0 0 102.97783 48.145348"
   version="1.1"
   id="svg978"
   inkscape:version="1.0.1 (3bc2e813f5, 2020-09-07)"
   sodipodi:docname="CF Logo.svg">
  <defs
     id="defs972">
    <clipPath
       clipPathUnits="userSpaceOnUse"
       id="clipPath26">
      <path
         d="m 99.911,181.823 v -11.621 c 0,-6.442 4.189,-12.134 10.34,-14.048 v 0 l 35.121,-13.63 c 3.959,-1.233 7.978,1.725 7.978,5.872 v 0 17.925 c 0,2.692 -1.751,5.07 -4.323,5.871 v 0 l -41.138,15.504 c -0.616,0.192 -1.234,0.282 -1.838,0.282 v 0 c -3.275,0 -6.14,-2.654 -6.14,-6.155"
         id="path24" />
    </clipPath>
    <linearGradient
       x1="0"
       y1="0"
       x2="1"
       y2="0"
       gradientUnits="userSpaceOnUse"
       gradientTransform="matrix(53.438896,0,0,-53.438896,99.911003,165.1096)"
       spreadMethod="pad"
       id="linearGradient38">
      <stop
         style="stop-opacity:1;stop-color:#1f4a9d"
         offset="0"
         id="stop32" />
      <stop
         style="stop-opacity:1;stop-color:#2fbbe6"
         offset="0.995206"
         id="stop34" />
      <stop
         style="stop-opacity:1;stop-color:#2fbbe6"
         offset="1"
         id="stop36" />
    </linearGradient>
    <clipPath
       clipPathUnits="userSpaceOnUse"
       id="clipPath48">
      <path
         d="m 160.798,278.089 -44.671,-17.211 c -0.949,-0.72 -3.144,-2.708 -3.282,-5.803 v 0 c -0.085,-1.877 1.145,-4.173 2.84,-4.961 v 0 l 33.348,-13.078 c 2.571,-0.801 4.323,-3.18 4.323,-5.874 v 0 -15.176 l 14.965,5.778 c 4.779,1.613 7.997,6.096 7.997,11.142 v 0 34.041 c 0,6.711 -5.495,11.769 -11.741,11.769 v 0 c -1.243,0 -2.514,-0.2 -3.779,-0.627"
         id="path46" />
    </clipPath>
    <linearGradient
       x1="0"
       y1="0"
       x2="1"
       y2="0"
       gradientUnits="userSpaceOnUse"
       gradientTransform="matrix(76.407463,0,0,-76.407463,99.910866,247.35086)"
       spreadMethod="pad"
       id="linearGradient60">
      <stop
         style="stop-opacity:1;stop-color:#1db3cc"
         offset="0"
         id="stop54" />
      <stop
         style="stop-opacity:1;stop-color:#1db3cc"
         offset="0.00071913"
         id="stop56" />
      <stop
         style="stop-opacity:1;stop-color:#29b07a"
         offset="1"
         id="stop58" />
    </linearGradient>
    <clipPath
       clipPathUnits="userSpaceOnUse"
       id="clipPath70">
      <path
         d="m 107.941,257.723 c -4.78,-1.615 -7.998,-6.097 -7.998,-11.143 v 0 c 0,0 0.013,-34.642 0,-34.636 v 0 c -0.194,-7.777 0.506,-9.643 1.733,-11.883 v 0 c 1.79,-2.937 3.653,-4.786 5.8,-6.149 v 0 c 0.86,-0.477 1.768,-0.882 2.727,-1.181 v 0 l 5.829,-2.224 c -2.455,2.088 -3.37,4.401 -3.371,6.488 v 0 c 0,1.184 0.537,2.368 1.14,3.057 v 0 c 0.68,0.776 1.584,1.318 2.561,1.649 v 0 l 36.994,14.285 v 15.176 c 0,2.694 -1.752,5.073 -4.323,5.874 v 0 l -33.348,13.078 c -1.695,0.788 -2.925,3.084 -2.84,4.961 v 0 c 0.138,3.095 2.333,5.083 3.282,5.803 v 0 z"
         id="path68" />
    </clipPath>
    <linearGradient
       x1="0"
       y1="0"
       x2="1"
       y2="0"
       gradientUnits="userSpaceOnUse"
       gradientTransform="matrix(76.407822,0,0,-76.407822,99.910774,225.692)"
       spreadMethod="pad"
       id="linearGradient82">
      <stop
         style="stop-opacity:1;stop-color:#1db3cc"
         offset="0"
         id="stop76" />
      <stop
         style="stop-opacity:1;stop-color:#1db3cc"
         offset="0.00071913"
         id="stop78" />
      <stop
         style="stop-opacity:1;stop-color:#29b07a"
         offset="1"
         id="stop80" />
    </linearGradient>
    <clipPath
       clipPathUnits="userSpaceOnUse"
       id="clipPath92">
      <path
         d="m 107.941,257.723 c -4.78,-1.615 -7.998,-6.097 -7.998,-11.143 v 0 c 0,0 0.013,-34.642 0,-34.636 v 0 c -0.194,-7.777 0.506,-9.643 1.733,-11.883 v 0 c 1.79,-2.937 3.653,-4.786 5.8,-6.149 v 0 c 0.86,-0.477 1.768,-0.882 2.727,-1.181 v 0 l 5.829,-2.224 29.345,-11.198 c 3.96,-1.232 7.979,1.725 7.979,5.872 v 0 30.805 15.176 c 0,2.694 -1.752,5.073 -4.323,5.874 v 0 l -33.348,13.078 c -1.695,0.788 -2.925,3.084 -2.84,4.961 v 0 c 0.138,3.095 2.333,5.083 3.282,5.803 v 0 z"
         id="path90" />
    </clipPath>
    <linearGradient
       x1="0"
       y1="0"
       x2="1"
       y2="0"
       gradientUnits="userSpaceOnUse"
       gradientTransform="matrix(53.603321,0,0,-53.603321,99.752258,219.95145)"
       spreadMethod="pad"
       id="linearGradient104">
      <stop
         style="stop-opacity:1;stop-color:#1f4a9d"
         offset="0"
         id="stop98" />
      <stop
         style="stop-opacity:1;stop-color:#2fbbe6"
         offset="0.995206"
         id="stop100" />
      <stop
         style="stop-opacity:1;stop-color:#2fbbe6"
         offset="1"
         id="stop102" />
    </linearGradient>
    <clipPath
       clipPathUnits="userSpaceOnUse"
       id="clipPath122">
      <path
         d="m 99.9108,260.877 h 53.4452 v -70.37 H 99.9108 Z"
         id="path120" />
    </clipPath>
    <clipPath
       clipPathUnits="userSpaceOnUse"
       id="clipPath126">
      <path
         d="m 149.033,237.035 -33.347,13.078 c -1.696,0.789 -2.926,3.084 -2.841,4.962 0.138,3.095 2.334,5.082 3.282,5.802 l -8.185,-3.154 c -4.781,-1.614 -7.999,-6.097 -7.999,-11.143 0,0 0.013,-34.641 0,-34.636 -0.194,-7.777 0.506,-9.643 1.732,-11.883 1.791,-2.937 3.654,-4.786 5.801,-6.149 0.86,-0.477 1.768,-0.882 2.728,-1.18 l 5.828,-2.225 c -2.454,2.088 -3.37,4.401 -3.371,6.487 0,1.185 0.537,2.369 1.14,3.058 0.679,0.775 1.584,1.318 2.561,1.648 l 36.994,14.286 v 15.176 c 0,2.694 -1.752,5.073 -4.323,5.873"
         id="path124" />
    </clipPath>
    <linearGradient
       x1="0"
       y1="0"
       x2="1"
       y2="0"
       gradientUnits="userSpaceOnUse"
       gradientTransform="matrix(76.407822,0,0,-76.407822,99.910774,225.692)"
       spreadMethod="pad"
       id="linearGradient134">
      <stop
         style="stop-opacity:1;stop-color:#1f4a9d"
         offset="0"
         id="stop128" />
      <stop
         style="stop-opacity:1;stop-color:#2fbbe6"
         offset="0.995206"
         id="stop130" />
      <stop
         style="stop-opacity:1;stop-color:#2fbbe6"
         offset="1"
         id="stop132" />
    </linearGradient>
  </defs>
  <sodipodi:namedview
     id="base"
     pagecolor="#ffffff"
     bordercolor="#666666"
     borderopacity="1.0"
     inkscape:pageopacity="0.0"
     inkscape:pageshadow="2"
     inkscape:zoom="0.7"
     inkscape:cx="227.61484"
     inkscape:cy="231.34753"
     inkscape:document-units="mm"
     inkscape:current-layer="layer1"
     inkscape:document-rotation="0"
     showgrid="false"
     inkscape:window-width="1566"
     inkscape:window-height="1030"
     inkscape:window-x="64"
     inkscape:window-y="0"
     inkscape:window-maximized="0" />
  <metadata
     id="metadata975">
    <rdf:RDF>
      <cc:Work
         rdf:about="">
        <dc:format>image/svg+xml</dc:format>
        <dc:type
           rdf:resource="http://purl.org/dc/dcmitype/StillImage" />
        <dc:title></dc:title>
      </cc:Work>
    </rdf:RDF>
  </metadata>
  <g
     inkscape:label="Layer 1"
     inkscape:groupmode="layer"
     id="layer1"
     transform="translate(-30.909896,-50.010661)">
    <g
       id="g970"
       transform="matrix(0.35277777,0,0,-0.35277777,-4.3364629,148.33547)">
      <g
         id="g20">
        <g
           id="g22"
           clip-path="url(#clipPath26)">
          <g
             id="g28">
            <g
               id="g30">
              <path
                 d="m 99.911,181.823 v -11.621 c 0,-6.442 4.189,-12.134 10.34,-14.048 v 0 l 35.121,-13.63 c 3.959,-1.233 7.978,1.725 7.978,5.872 v 0 17.925 c 0,2.692 -1.751,5.07 -4.323,5.871 v 0 l -41.138,15.504 c -0.616,0.192 -1.234,0.282 -1.838,0.282 v 0 c -3.275,0 -6.14,-2.654 -6.14,-6.155"
                 style="fill:url(#linearGradient38);stroke:none"
                 id="path40" />
            </g>
          </g>
        </g>
      </g>
      <g
         id="g44"
         clip-path="url(#clipPath48)">
        <g
           id="g50">
          <g
             id="g52">
            <path
               d="m 160.798,278.089 -44.671,-17.211 c -0.949,-0.72 -3.144,-2.708 -3.282,-5.803 v 0 c -0.085,-1.877 1.145,-4.173 2.84,-4.961 v 0 l 33.348,-13.078 c 2.571,-0.801 4.323,-3.18 4.323,-5.874 v 0 -15.176 l 14.965,5.778 c 4.779,1.613 7.997,6.096 7.997,11.142 v 0 34.041 c 0,6.711 -5.495,11.769 -11.741,11.769 v 0 c -1.243,0 -2.514,-0.2 -3.779,-0.627"
               style="fill:url(#linearGradient60);stroke:none"
               id="path62" />
          </g>
        </g>
      </g>
      <g
         id="g64">
        <g
           id="g66"
           clip-path="url(#clipPath70)">
          <g
             id="g72">
            <g
               id="g74">
              <path
                 d="m 107.941,257.723 c -4.78,-1.615 -7.998,-6.097 -7.998,-11.143 v 0 c 0,0 0.013,-34.642 0,-34.636 v 0 c -0.194,-7.777 0.506,-9.643 1.733,-11.883 v 0 c 1.79,-2.937 3.653,-4.786 5.8,-6.149 v 0 c 0.86,-0.477 1.768,-0.882 2.727,-1.181 v 0 l 5.829,-2.224 c -2.455,2.088 -3.37,4.401 -3.371,6.488 v 0 c 0,1.184 0.537,2.368 1.14,3.057 v 0 c 0.68,0.776 1.584,1.318 2.561,1.649 v 0 l 36.994,14.285 v 15.176 c 0,2.694 -1.752,5.073 -4.323,5.874 v 0 l -33.348,13.078 c -1.695,0.788 -2.925,3.084 -2.84,4.961 v 0 c 0.138,3.095 2.333,5.083 3.282,5.803 v 0 z"
                 style="fill:url(#linearGradient82);stroke:none"
                 id="path84" />
            </g>
          </g>
        </g>
      </g>
      <g
         id="g88"
         clip-path="url(#clipPath92)">
        <g
           id="g94">
          <g
             id="g96">
            <path
               d="m 107.941,257.723 c -4.78,-1.615 -7.998,-6.097 -7.998,-11.143 v 0 c 0,0 0.013,-34.642 0,-34.636 v 0 c -0.194,-7.777 0.506,-9.643 1.733,-11.883 v 0 c 1.79,-2.937 3.653,-4.786 5.8,-6.149 v 0 c 0.86,-0.477 1.768,-0.882 2.727,-1.181 v 0 l 5.829,-2.224 29.345,-11.198 c 3.96,-1.232 7.979,1.725 7.979,5.872 v 0 30.805 15.176 c 0,2.694 -1.752,5.073 -4.323,5.874 v 0 l -33.348,13.078 c -1.695,0.788 -2.925,3.084 -2.84,4.961 v 0 c 0.138,3.095 2.333,5.083 3.282,5.803 v 0 z"
               style="fill:url(#linearGradient104);stroke:none"
               id="path106" />
          </g>
        </g>
      </g>
      <g
         id="g116">
        <g
           id="g118" />
        <g
           id="g148">
          <g
             clip-path="url(#clipPath122)"
             id="g146">
            <g
               id="g144">
              <g
                 clip-path="url(#clipPath126)"
                 id="g142">
                <g
                   id="g140">
                  <g
                     id="g138">
                    <path
                       d="m 149.033,237.035 -33.347,13.078 c -1.696,0.789 -2.926,3.084 -2.841,4.962 0.138,3.095 2.334,5.082 3.282,5.802 l -8.185,-3.154 c -4.781,-1.614 -7.999,-6.097 -7.999,-11.143 0,0 0.013,-34.641 0,-34.636 -0.194,-7.777 0.506,-9.643 1.732,-11.883 1.791,-2.937 3.654,-4.786 5.801,-6.149 0.86,-0.477 1.768,-0.882 2.728,-1.18 l 5.828,-2.225 c -2.454,2.088 -3.37,4.401 -3.371,6.487 0,1.185 0.537,2.369 1.14,3.058 0.679,0.775 1.584,1.318 2.561,1.648 l 36.994,14.286 v 15.176 c 0,2.694 -1.752,5.073 -4.323,5.873"
                       style="fill:url(#linearGradient134);stroke:none"
                       id="path136" />
                  </g>
                </g>
              </g>
            </g>
          </g>
        </g>
      </g>
      <g
         id="g450"
         transform="translate(187.6094,176.2522)">
        <path
           d="m 0,0 c 4.511,0 6.851,2.683 6.851,7.378 v 3.898 H 2.506 V 7.085 c 0,-2.097 -0.919,-2.852 -2.381,-2.852 -1.462,0 -2.381,0.755 -2.381,2.852 V 22.26 c 0,2.096 0.919,2.892 2.381,2.892 1.462,0 2.381,-0.796 2.381,-2.892 v -3.145 h 4.345 v 2.852 c 0,4.694 -2.34,7.378 -6.851,7.378 -4.513,0 -6.853,-2.684 -6.853,-7.378 V 7.378 C -6.853,2.683 -4.513,0 0,0"
           style="fill:#585757;fill-opacity:1;fill-rule:nonzero;stroke:none"
           id="path452" />
      </g>
      <g
         id="g454"
         transform="translate(199.103,176.2522)">
        <path
           d="m 0,0 h 4.596 v 12.115 h 5.931 v 4.193 H 4.596 v 8.844 h 7.561 v 4.193 H 0 Z"
           style="fill:#585757;fill-opacity:1;fill-rule:nonzero;stroke:none"
           id="path456" />
      </g>
      <g
         id="g458"
         transform="translate(233.1475,194.2365)">
        <path
           d="m 0,0 c 0,-2.097 -0.794,-2.767 -2.256,-2.767 h -2.172 v 9.935 h 2.172 C -0.794,7.168 0,6.497 0,4.401 Z m 4.595,0.294 v 3.813 c 0,4.696 -2.255,7.253 -6.851,7.253 h -6.768 v -29.344 h 4.596 v 11.025 h 2.172 c 4.596,0 6.851,2.557 6.851,7.253"
           style="fill:#585757;fill-opacity:1;fill-rule:nonzero;stroke:none"
           id="path460" />
      </g>
      <g
         id="g462"
         transform="translate(246.6509,188.8283)">
        <path
           d="M 0,0 H 5.223 V -12.576 H 9.9 V 16.769 H 5.223 V 4.191 H 0 V 16.769 H -4.596 V -12.576 H 0 Z"
           style="fill:#585757;fill-opacity:1;fill-rule:nonzero;stroke:none"
           id="path464" />
      </g>
      <path
         d="m 266.4624,185.5588 2.215,14.84 2.213,-14.84 z m -0.919,20.038 -4.68,-29.345 h 4.221 l 0.793,5.324 h 5.641 l 0.792,-5.324 h 4.637 l -4.678,29.345 z"
         style="fill:#585757;fill-opacity:1;fill-rule:nonzero;stroke:none"
         id="path468" />
      <g
         id="g470"
         transform="translate(285.8569,201.4045)">
        <path
           d="m 0,0 h 2.213 c 1.63,0 2.34,-0.922 2.34,-3.019 v -2.892 c 0,-2.348 -1.044,-3.102 -2.756,-3.102 H 0 Z m 4.595,-16.936 v -4.611 c 0,-2.39 0.167,-2.85 0.418,-3.605 h 4.678 c -0.459,1.09 -0.502,2.137 -0.502,3.563 v 4.527 c 0,3.06 -0.75,5.282 -3.049,6.247 2.048,0.963 3.01,2.934 3.01,5.952 v 2.305 c 0,4.529 -2.048,6.75 -6.81,6.75 H -4.595 V -25.152 H 0 v 11.947 h 1.587 c 2.089,0 3.008,-1.006 3.008,-3.731"
           style="fill:#585757;fill-opacity:1;fill-rule:nonzero;stroke:none"
           id="path472" />
      </g>
      <g
         id="g474"
         transform="translate(309.8013,184.7619)">
        <path
           d="M 0,0 -3.384,20.835 H -9.776 V -8.51 h 4.01 V 12.241 L -2.34,-8.51 H 2.005 L 5.18,12.534 V -8.51 H 9.526 V 20.835 H 3.132 Z"
           style="fill:#585757;fill-opacity:1;fill-rule:nonzero;stroke:none"
           id="path476" />
      </g>
      <g
         id="g478"
         transform="translate(323.5962,201.4045)">
        <path
           d="M 0,0 H 4.804 V -25.152 H 9.4 V 0 h 4.804 V 4.192 H 0 Z"
           style="fill:#585757;fill-opacity:1;fill-rule:nonzero;stroke:none"
           id="path480" />
      </g>
      <g
         id="g482"
         transform="translate(354.582,180.4445)">
        <path
           d="m 0,0 h -7.937 v 8.594 h 6.308 v 4.191 H -7.937 V 20.96 H 0 v 4.192 H -12.532 V -4.192 H 0 Z"
           style="fill:#585757;fill-opacity:1;fill-rule:nonzero;stroke:none"
           id="path484" />
      </g>
      <g
         id="g486"
         transform="translate(365.8271,205.5969)">
        <path
           d="m 0,0 c -4.51,0 -6.85,-2.684 -6.85,-7.378 v -14.589 c 0,-4.695 2.34,-7.378 6.85,-7.378 4.512,0 6.852,2.683 6.852,7.378 v 3.899 H 2.506 v -4.192 c 0,-2.096 -0.918,-2.851 -2.379,-2.851 -1.462,0 -2.383,0.755 -2.383,2.851 v 15.175 c 0,2.097 0.921,2.893 2.383,2.893 1.461,0 2.379,-0.796 2.379,-2.893 v -3.144 h 4.346 v 2.851 C 6.852,-2.684 4.512,0 0,0"
           style="fill:#585757;fill-opacity:1;fill-rule:nonzero;stroke:none"
           id="path488" />
      </g>
      <g
         id="g490"
         transform="translate(387.1396,205.5969)">
        <path
           d="M 0,0 V -12.577 H -5.223 V 0 h -4.594 v -29.345 h 4.594 v 12.576 H 0 V -29.345 H 4.677 V 0 Z"
           style="fill:#585757;fill-opacity:1;fill-rule:nonzero;stroke:none"
           id="path492" />
      </g>
      <g
         id="g494"
         transform="translate(189.5859,158.8283)">
        <path
           d="m 0,0 c 0.658,-0.061 1.375,0.179 2.152,0.717 l 4.573,3.049 h 4.931 V 3.586 L 4.303,-1.973 C 3.407,-2.689 2.242,-3.02 0.808,-2.959 H -2.241 V 0 Z m 7.758,-16.587 c -1.608,0 -2.81,0.269 -3.587,1.165 l -7.352,6.276 v 0.179 h 5.29 l 4.752,-3.854 c 0.597,-0.538 1.195,-0.808 1.793,-0.808 h 2.6 v -2.958 z M -7.574,3.766 h 3.676 V -4.736 H 11.344 V -7.817 H -3.898 v -5.274 c 0,-0.3 0.148,-0.448 0.448,-0.448 h 2.869 v -3.048 h -4.751 c -1.495,0 -2.242,0.777 -2.242,2.331 v 6.439 h -1.255 v 3.081 h 1.255 z"
           style="fill:#585757;fill-opacity:1;fill-rule:nonzero;stroke:none"
           id="path496" />
      </g>
      <g
         id="g498"
         transform="translate(299.624,146.2307)">
        <path
           d="m 0,0 c -1.315,-0.061 -2.122,0.567 -2.42,1.883 l -1.166,4.304 h 2.869 L 0.18,2.959 C 0.298,2.601 0.532,2.511 0.986,2.511 H 2.779 V 0 Z M -1.972,12.015 H 1.166 L 0.896,10.759 H 5.421 C 6.686,10.759 7.71,9.734 7.71,8.47 V -2.511 c 0,-1.118 -0.491,-1.434 -1.882,-1.434 h -6.007 v 2.152 h 4.393 c 0.299,0 0.449,0.18 0.449,0.538 v 8.932 c 0,0.316 -0.256,0.572 -0.572,0.572 H 0.269 C 0.03,7.472 -0.52,7.173 -1.434,7.173 h -2.511 v 2.421 h 0.896 c 0.435,0 0.634,0.265 0.718,0.717 z m -10.312,-13.45 h 7.89 v -2.511 h -7.89 z m 0.39,9.745 2.39,3.435 h 3.317 L -9.504,6.993 h 0.986 l 1.165,1.525 h 3.408 L -8.428,2.331 h 4.034 V -0.18 h -7.89 v 1.12 c 0,0.612 0.201,1.206 0.57,1.694 l 1.403,1.849 h -2.062 v 2.3 c 0,0.546 0.167,1.078 0.479,1.527 m 4.362,7.022 H 2.959 v 0.986 H 6.456 V 15.332 H 7.71 v -2.69 h -20.173 v 2.69 h 1.435 v 0.986 h 3.496 z"
           style="fill:#585757;fill-opacity:1;fill-rule:nonzero;stroke:none"
           id="path500" />
      </g>
      <g
         id="g502"
         transform="translate(356.7705,150.6008)">
        <path
           d="M 0,0 0.718,10.962 H 3.587 L 2.779,-0.986 C 2.659,-2.66 1.973,-3.467 0.718,-3.407 h -2.152 v 2.689 h 0.807 c 0.298,0 0.601,0.254 0.627,0.718 m -13.986,-3.497 c -1.077,-0.06 -1.645,0.808 -1.704,2.601 l -0.628,11.768 h 2.87 l 0.537,-10.693 c 0,-0.717 0.177,-0.986 0.538,-0.986 h 0.627 v -2.69 z m 3.406,15.445 h 3.138 V -5.625 h 1.794 v 17.573 h 3.137 V -5.625 h 6.098 v -2.689 h -19.905 v 2.689 h 5.738 z"
           style="fill:#585757;fill-opacity:1;fill-rule:nonzero;stroke:none"
           id="path504" />
      </g>
      <g
         id="g506"
         transform="translate(253.7739,144.883)">
        <path
           d="m 0,0 v 15.24 c 0,1.364 -1.106,2.471 -2.47,2.471 h -14.336 c -1.364,0 -2.471,-1.107 -2.469,-2.473 l 0.01,-15.078 c 0,-0.221 -0.179,-0.4 -0.401,-0.4 h -0.328 v -2.402 h 2.325 c 0.994,0 1.799,0.805 1.799,1.799 v 14.881 c 0,0.493 0.4,0.894 0.893,0.894 H -4.39 c 0.493,0 0.893,-0.401 0.893,-0.894 V -0.843 c 0,-0.994 0.806,-1.799 1.799,-1.799 H 0.627 V -0.4 H 0.4 C 0.179,-0.4 0,-0.222 0,0"
           style="fill:#585757;fill-opacity:1;fill-rule:nonzero;stroke:none"
           id="path508" />
      </g>
      <g
         id="g510"
         transform="translate(245.6772,149.9514)">
        <path
           d="M 0,0 4.213,8.249 H 0.896 L -5.67,-3.761 c 0,0 -0.397,-0.811 -1.018,-0.811 h -0.591 v -2.421 h 2.347 c 0.759,-0.053 1.297,0.262 1.614,0.945 0.032,0.07 1.524,2.732 1.524,2.732 z"
           style="fill:#585757;fill-opacity:1;fill-rule:nonzero;stroke:none"
           id="path512" />
      </g>
      <g
         id="g514"
         transform="translate(242.5039,149.9514)">
        <path
           d="m 0,0 -4.213,8.249 h 3.317 L 5.67,-3.761 c 0,0 0.397,-0.811 1.018,-0.811 H 7.279 V -6.993 H 4.932 c -0.759,-0.053 -1.297,0.262 -1.614,0.945 -0.032,0.07 -1.524,2.732 -1.524,2.732 z"
           style="fill:#585757;fill-opacity:1;fill-rule:nonzero;stroke:none"
           id="path516" />
      </g>
      <path
         d="m 217.026,142.241 h 0.972 v 20.353 h -0.972 z"
         style="fill:#585757;fill-opacity:1;fill-rule:nonzero;stroke:none"
         id="path518" />
      <path
         d="m 270.183,142.241 h 0.972 v 20.353 h -0.972 z"
         style="fill:#585757;fill-opacity:1;fill-rule:nonzero;stroke:none"
         id="path520" />
      <path
         d="m 323.34,142.241 h 0.972 v 20.353 h -0.972 z"
         style="fill:#585757;fill-opacity:1;fill-rule:nonzero;stroke:none"
         id="path522" />
    </g>
  </g>
</svg>
