<svg xmlns="http://www.w3.org/2000/svg" viewBox="0 0 141.62 141.62"><defs><style>.cls-1{fill:none;stroke:#1ba3b8;stroke-miterlimit:10;}.cls-2{fill:#1ba3b8;}</style></defs><g id="Layer_2" data-name="Layer 2"><g id="图层_1" data-name="图层 1"><circle class="cls-1" cx="70.81" cy="70.81" r="70.31"/><path class="cls-2" d="M105.91,85.85c1.65-7.55-2-19.24-8-29.87L83.81,63.54A15.15,15.15,0,0,1,85.53,75ZM55.59,71.34a15.15,15.15,0,0,1,2.14-7.79l-14-7.48c-6.11,10.67-9.85,22.33-7.92,29.65L56,74.92a14.74,14.74,0,0,1-.43-3.58Zm3.87-10.13a15.19,15.19,0,0,1,22.62,0l14.41-7.71C89.18,41.37,79.11,31.24,71,31.24S52.7,41.46,45.21,53.59Zm25.11,16.5a15.19,15.19,0,0,1-27.59,0L36.92,88.41a8.22,8.22,0,0,0,.59.9c10.08,13.37,58.59,14.49,67.1,0,.13-.22.25-.45.37-.68ZM77.37,96.5H64.22V96H77.37Zm0-4.5H64.22v-.51H77.37Zm0-4.55H64.22v-.51H77.37Z"/><path class="cls-2" d="M63.18,71.34a7.6,7.6,0,1,0,7.6-7.6,7.6,7.6,0,0,0-7.6,7.6Z"/><path class="cls-2" d="M63.18,77.62v32.76h15.2V77.62Zm14.18,27.9H64.2V105H77.36Zm0-4.51H64.2v-.51H77.36Zm0-4.5H64.2V96H77.36Zm0-4.51H64.2v-.51H77.36Zm0-4.56H64.2v-.51H77.36Zm0-4.5H64.2v-.51H77.36Z"/></g></g></svg>