<svg xmlns="http://www.w3.org/2000/svg" viewBox="0 0 143.87 143.87"><defs><style>.cls-1{fill:none;stroke:#1ba3b8;stroke-miterlimit:10;}.cls-2{fill:#1ba3b8;}</style></defs><g id="Layer_2" data-name="Layer 2"><g id="图层_1" data-name="图层 1"><circle class="cls-1" cx="71.93" cy="71.93" r="71.43"/><path class="cls-2" d="M105.19,92.23c-.23,7.85.3,9.57-1.18,10.62a4.42,4.42,0,0,1-2.59.68c-6.06,0-17.32-7.37-18.64-16-.57-3.76.94-5.67,0-10.61-.78-4.11-3.36-7.4-5.49-9.69L74.56,66a6.33,6.33,0,0,0-5.25,0l-2.74,1.24c-2.13,2.29-4.71,5.59-5.49,9.69-.94,4.94.57,6.85,0,10.61-1.32,8.65-12.58,16-18.64,16a4.42,4.42,0,0,1-2.59-.68c-1.48-1.06-1-2.77-1.18-10.62-.43-15-2.58-15.81-1.18-22.41a30.77,30.77,0,0,1,8.26-15.33c4.69-4.63,11.17-7.69,14.59-7.69a2.56,2.56,0,0,1,1.92.61c1,1.1.41,4,0,5.9-.61,2.85-1.68,4.19-1.17,4.71.3.32,2.16,4.14,4.94,4.64h0a6.37,6.37,0,0,0,3.72-5.78V40.8a.55.55,0,0,1,.55-.55h3.27a.55.55,0,0,1,.54.55V56.89a6.36,6.36,0,0,0,3.73,5.78c2.77-.5,4.64-4.32,4.94-4.64.5-.52-.57-1.87-1.18-4.72-.41-1.9-1-4.8,0-5.89a2.57,2.57,0,0,1,1.93-.62c3.41,0,9.89,3.07,14.59,7.69a30.77,30.77,0,0,1,8.25,15.33c1.37,6.61-.76,7.42-1.2,22.41Z"/></g></g></svg>