<svg xmlns="http://www.w3.org/2000/svg" viewBox="0 0 143.87 143.87"><defs><style>.cls-1{fill:none;stroke:#1ba3b8;stroke-miterlimit:10;}.cls-2{fill:#1ba3b8;}</style></defs><g id="Layer_2" data-name="Layer 2"><g id="图层_1" data-name="图层 1"><circle class="cls-1" cx="71.93" cy="71.93" r="71.43"/><path class="cls-2" d="M66.43,84.7H49.77a3.36,3.36,0,0,1,.08,1.86,9.05,9.05,0,0,0-.16,5c.82,2.81,11.4,1.16,11.4,1.16,4.33-1.48,1.31,16.53,1.31,16.53h7.22V88a3.27,3.27,0,0,0-3.19-3.26Z"/><path class="cls-2" d="M99.13,50.69C93,33.33,74.34,34.63,74.34,34.63c-22.48.66-23.46,20.16-23.46,20.16-2.31,3.47-.33,4.47-.33,4.47.83,1.8-6.11,11.07-6.11,11.07-3.31,3.31,3,3.8,3,3.8,2.81.5.67,4,.67,4a2.52,2.52,0,0,0-.34.79H66.43a9,9,0,0,1,9,9V109.2H91.87c.32-2.31-3.48-16-3.48-16-2.14-9.59,6.49-19,6.49-19,9-13.37,4.25-23.47,4.25-23.47Z"/></g></g></svg>