<svg xmlns="http://www.w3.org/2000/svg" viewBox="0 0 143.87 143.87"><defs><style>.cls-1{fill:none;stroke:#1ba3b8;stroke-miterlimit:10;}.cls-2{fill:#1ba3b8;}</style></defs><g id="Layer_2" data-name="Layer 2"><g id="图层_1" data-name="图层 1"><circle class="cls-1" cx="71.93" cy="71.93" r="71.43"/><path class="cls-2" d="M95.82,74.8c-1.27-3.23-3.84-5.59-7.66-7C87,55.22,85.05,45.63,82.5,39.26a21.9,21.9,0,0,0-4.58-7.55A8.52,8.52,0,0,0,71.85,29h0a8.53,8.53,0,0,0-5.91,2.59A20.63,20.63,0,0,0,61.43,39c-2.55,6.43-4.37,16-5.55,29.3-3.8,1.24-6.37,3.27-7.7,6a12.11,12.11,0,0,0-1,6.31,26.94,26.94,0,0,0,2.11,7.85.21.21,0,0,0,0,.07C50.49,90.75,53,92,56.54,92a16.87,16.87,0,0,0,3.87-.48,11,11,0,0,0,4.24,3.58,17.31,17.31,0,0,0,6.82,1.34h0c5-.07,8.75-1.86,11.26-5.31a18.46,18.46,0,0,0,5.07.75c4.13,0,6.94-1.56,7.7-4.27,1.48-5.15,1.57-9.45.27-12.78M60.45,90.39a1,1,0,0,1-1.24-.58c-.52-1.45-1.15-2.31-1.84-2.5s-1.81.48-2.53,1.07a1,1,0,0,1-1.33-.15,1,1,0,0,1,.08-1.33c1.55-1.32,3-1.81,4.29-1.46S60.27,87,61,89.15a1,1,0,0,1,0,.75,1,1,0,0,1-.55.49m9.2-50.8c-3.06,7.93-5.07,18.27-6,30.76a1,1,0,0,1-1,.9h-.07a1,1,0,0,1-.66-.34,1,1,0,0,1-.24-.7c.94-12.68,3-23.21,6.12-31.31a1,1,0,1,1,1.81.69M89.54,88.26a1,1,0,0,1-.66.35,1,1,0,0,1-.71-.23c-.71-.6-1.74-1.28-2.53-1.07s-1.32,1-1.84,2.5A1,1,0,0,1,82,89.15c.77-2.13,1.8-3.34,3.16-3.71s2.73.14,4.29,1.46a1,1,0,0,1,.35.66,1,1,0,0,1-.23.71"/><path class="cls-2" d="M52.35,103.53a5,5,0,1,0,5-5,5,5,0,0,0-5,5Z"/><path class="cls-2" d="M76.37,107.52a2.49,2.49,0,1,0,3.73-2.15,2.49,2.49,0,0,0-3.73,2.15Z"/><path class="cls-2" d="M82.53,97a3,3,0,1,0,3-3,3,3,0,0,0-3,3Z"/></g></g></svg>