<?xml version="1.0" standalone="no"?>
<!DOCTYPE svg PUBLIC "-//W3C//DTD SVG 20010904//EN"
 "http://www.w3.org/TR/2001/REC-SVG-20010904/DTD/svg10.dtd">
<svg version="1.0" xmlns="http://www.w3.org/2000/svg"
 width="1456.000000pt" height="1456.000000pt" viewBox="0 0 1456.000000 1456.000000"
 preserveAspectRatio="xMidYMid meet">
<metadata>
Created by potrace 1.11, written by Peter Selinger 2001-2013
</metadata>
<g transform="translate(0.000000,1456.000000) scale(0.100000,-0.100000)"
fill="#000000" stroke="none">
<path d="M9954 14551 c-3 -3 -15 -6 -27 -7 -61 -5 -150 -27 -242 -61 -84 -30
-268 -101 -310 -119 -16 -6 -86 -33 -155 -59 -69 -26 -140 -53 -159 -62 -18
-8 -45 -19 -60 -23 -14 -4 -72 -26 -128 -48 -57 -22 -103 -37 -103 -34 0 4 -4
2 -8 -3 -4 -6 -47 -26 -97 -44 -49 -18 -102 -39 -117 -47 -14 -8 -35 -14 -45
-14 -10 0 -23 -4 -28 -8 -10 -9 -329 -133 -349 -136 -6 -1 -16 -5 -23 -9 -6
-4 -40 -18 -75 -31 -35 -14 -76 -30 -93 -37 -16 -7 -32 -13 -35 -13 -5 -1 -13
-4 -150 -58 -47 -18 -87 -33 -90 -34 -3 0 -18 -6 -35 -13 -16 -7 -34 -14 -40
-15 -5 -2 -23 -9 -40 -15 -77 -32 -141 -55 -147 -53 -5 1 -8 -2 -8 -6 0 -5 -6
-9 -12 -9 -7 -1 -119 -43 -248 -93 -129 -50 -260 -100 -290 -111 -30 -10 -64
-23 -75 -29 -11 -5 -45 -19 -75 -30 -30 -11 -64 -24 -75 -29 -11 -5 -33 -14
-50 -20 -16 -6 -43 -16 -60 -22 -16 -7 -32 -13 -35 -13 -5 -1 -89 -34 -230
-89 -30 -12 -57 -22 -60 -23 -3 0 -18 -6 -35 -13 -16 -7 -55 -22 -85 -33 -30
-11 -68 -26 -85 -33 -16 -7 -86 -34 -155 -60 -69 -26 -131 -52 -139 -58 -8 -7
-16 -11 -17 -10 -9 6 -64 -10 -64 -18 0 -5 -3 -8 -7 -7 -11 3 -86 -23 -98 -33
-5 -5 -15 -9 -23 -9 -7 0 -32 -8 -55 -19 -23 -10 -76 -31 -117 -46 -41 -15
-88 -33 -105 -40 -16 -6 -57 -22 -90 -35 -33 -12 -74 -29 -92 -36 -17 -8 -38
-14 -47 -14 -9 0 -16 -3 -16 -7 0 -5 -28 -16 -63 -27 -34 -10 -72 -25 -84 -32
-12 -8 -30 -16 -40 -18 -10 -1 -27 -7 -38 -11 -11 -4 -49 -19 -85 -32 -36 -13
-74 -29 -85 -33 -44 -20 -140 -54 -147 -52 -5 1 -8 -3 -8 -8 0 -6 -6 -10 -14
-10 -14 0 -141 -47 -261 -97 -33 -14 -68 -26 -78 -28 -20 -5 -184 -83 -242
-117 -22 -13 -51 -33 -65 -45 -14 -13 -28 -23 -32 -23 -4 0 -24 -16 -44 -35
-19 -19 -38 -35 -40 -35 -5 0 -70 -67 -113 -116 -131 -151 -250 -402 -277
-584 -2 -14 -8 -52 -13 -85 -10 -65 -8 -4441 2 -4510 4 -22 8 -58 10 -80 2
-22 10 -69 17 -105 7 -36 14 -74 15 -85 6 -38 55 -172 89 -241 36 -75 124
-217 138 -222 4 -2 8 -8 8 -13 0 -17 143 -191 221 -268 81 -80 201 -177 291
-235 32 -20 60 -37 63 -37 2 0 39 -15 80 -34 42 -19 81 -35 86 -35 6 0 31 -9
57 -19 26 -10 97 -38 157 -61 61 -23 119 -45 130 -50 11 -4 47 -18 80 -30 33
-12 69 -26 80 -30 70 -29 182 -72 195 -75 8 -2 42 -14 75 -26 33 -13 62 -24
65 -24 3 -1 23 -9 45 -19 22 -10 47 -19 55 -21 8 -2 16 -4 18 -5 1 -2 5 -3 10
-4 4 -1 24 -10 46 -19 21 -9 42 -17 47 -17 5 0 28 -8 52 -19 23 -10 69 -29
102 -41 33 -12 80 -30 105 -40 41 -17 143 -56 375 -142 44 -16 94 -35 110 -42
17 -7 55 -22 85 -34 63 -23 310 -118 355 -135 17 -6 32 -12 35 -13 3 0 19 -6
35 -13 17 -7 102 -40 190 -73 88 -33 174 -66 190 -73 17 -7 46 -18 65 -25 39
-14 45 -16 152 -59 43 -17 82 -31 87 -31 5 0 26 -8 47 -17 22 -9 42 -18 47
-19 4 -1 9 -3 12 -4 3 -1 8 -3 13 -5 4 -1 16 -5 27 -10 71 -30 161 -65 166
-65 4 0 24 -8 45 -17 22 -9 41 -17 44 -18 17 -3 87 -29 95 -35 6 -3 46 -19 90
-35 44 -15 86 -32 93 -38 6 -5 12 -6 12 -3 0 4 10 1 23 -6 25 -14 21 -13 65
-23 17 -4 32 -11 32 -15 0 -10 139 -33 203 -33 70 -1 175 16 202 32 6 3 17 6
25 8 8 1 35 13 60 25 204 105 321 266 364 499 2 13 5 782 5 1708 1 926 4 1682
7 1679 4 -5 45 9 189 67 11 4 25 9 30 11 12 3 371 142 400 154 11 5 81 32 155
61 74 28 172 66 217 84 45 18 84 31 87 28 3 -4 6 -1 6 5 0 7 3 11 8 10 9 -2
46 10 97 32 37 16 184 73 195 76 3 0 19 6 35 13 17 7 91 36 165 64 119 45 303
138 335 171 7 6 25 20 41 31 36 25 224 213 224 225 0 5 6 15 13 22 24 26 87
123 87 136 0 6 5 12 10 12 6 0 10 6 10 14 0 7 10 33 23 57 13 24 36 85 51 134
16 50 31 97 34 105 2 8 6 28 8 44 2 15 8 54 13 85 11 61 9 3898 -1 3966 -3 22
-16 76 -27 120 -12 44 -24 88 -26 99 -13 54 -115 257 -156 308 -16 20 -29 39
-29 43 0 20 -236 255 -256 255 -3 0 -23 13 -43 29 -95 75 -299 161 -466 197
-77 16 -378 28 -391 15z"/>
<path d="M3799 4875 c-2 -1 -20 -5 -39 -8 -84 -13 -180 -45 -180 -61 0 -5 -3
-7 -6 -3 -7 7 -78 -38 -138 -88 -102 -85 -190 -235 -215 -370 -9 -46 -7 -1513
2 -1570 6 -42 13 -75 22 -105 1 -3 5 -25 9 -49 5 -25 17 -70 28 -100 11 -31
21 -63 23 -72 4 -19 37 -94 82 -184 115 -232 292 -428 538 -596 28 -19 64 -41
80 -49 17 -8 32 -17 35 -20 4 -5 84 -41 165 -75 17 -7 89 -34 160 -60 72 -27
144 -54 160 -61 17 -7 62 -24 100 -39 89 -34 242 -94 275 -107 35 -15 49 -20
200 -77 74 -29 143 -56 152 -61 10 -6 22 -10 27 -10 5 0 26 -8 47 -17 22 -9
42 -18 47 -19 4 -1 9 -3 12 -4 3 -1 8 -3 13 -5 4 -1 21 -7 37 -14 17 -7 107
-42 200 -78 94 -35 189 -73 212 -84 24 -10 46 -19 49 -19 8 0 250 -94 301
-116 17 -8 33 -14 36 -14 3 0 18 -5 34 -12 15 -6 30 -12 33 -13 3 -1 14 -5 25
-10 59 -23 255 -99 355 -138 63 -24 124 -48 135 -52 11 -5 22 -9 25 -10 3 -1
19 -7 35 -14 49 -19 220 -85 225 -87 3 0 21 -7 40 -15 19 -7 38 -12 43 -11 4
1 7 -2 7 -7 0 -5 15 -13 33 -16 17 -4 57 -19 87 -32 30 -14 62 -26 70 -28 8
-2 33 -11 55 -21 22 -10 42 -18 45 -19 3 0 30 -10 60 -22 30 -12 118 -46 195
-76 77 -29 149 -57 160 -62 11 -4 25 -9 31 -10 6 -2 27 -10 45 -18 40 -17 111
-44 122 -46 4 -1 8 -1 10 -2 66 -22 255 -17 342 9 42 13 153 70 195 100 40 29
150 141 150 153 0 4 6 14 13 21 22 22 65 120 84 188 17 61 18 137 18 1115 0
896 -3 1106 -16 1123 -1 1 -3 7 -4 12 -1 6 -3 11 -4 13 -2 1 -4 12 -7 25 -11
60 -87 183 -158 254 -87 87 -169 131 -371 200 -33 11 -64 25 -70 29 -5 5 -17
9 -27 9 -9 0 -33 9 -53 20 -19 11 -38 19 -41 19 -5 -1 -9 0 -141 50 -46 17
-120 45 -165 62 -46 17 -92 35 -103 39 -11 5 -58 23 -105 40 -47 17 -94 35
-105 39 -11 5 -36 14 -55 21 -19 7 -44 16 -55 20 -53 21 -161 62 -170 65 -5 1
-23 7 -40 14 -16 6 -55 21 -85 32 -30 12 -64 25 -75 29 -11 4 -47 18 -80 30
-33 12 -69 26 -80 30 -18 8 -197 75 -320 121 -27 10 -75 28 -105 39 -30 12
-67 25 -81 30 -15 4 -42 15 -60 23 -19 8 -50 20 -69 27 -19 7 -44 16 -55 20
-11 5 -166 64 -345 130 -179 67 -352 132 -385 145 -33 13 -116 44 -185 70 -69
25 -134 50 -145 54 -22 10 -160 62 -245 93 -30 11 -64 24 -75 29 -11 5 -47 18
-80 29 -33 12 -69 25 -80 30 -30 11 -128 49 -145 55 -3 1 -12 5 -20 8 -111 47
-461 172 -510 183 -31 6 -186 14 -191 9z"/>
</g>
</svg>
