<svg xmlns="http://www.w3.org/2000/svg" xmlns:xlink="http://www.w3.org/1999/xlink" viewBox="0 0 325.67 325.67"><defs><style>.cls-1{fill:url(#未命名的渐变_3);}.cls-2{fill:none;stroke:#fff;stroke-linecap:round;stroke-linejoin:round;stroke-width:5px;}.cls-3{fill:#fff;}</style><linearGradient id="未命名的渐变_3" y1="162.83" x2="325.67" y2="162.83" gradientUnits="userSpaceOnUse"><stop offset="0" stop-color="#214b9e"/><stop offset="1" stop-color="#31bce7"/></linearGradient></defs><g id="Layer_2" data-name="Layer 2"><g id="图层_1" data-name="图层 1"><rect class="cls-1" width="325.67" height="325.67" rx="39.48"/><path class="cls-2" d="M255.79,274.43H69.88A18.08,18.08,0,0,1,88,256.35H237.72A18.08,18.08,0,0,1,255.79,274.43Z"/><rect class="cls-2" x="193.82" y="233.12" width="23.24" height="23.24"/><rect class="cls-2" x="113.77" y="233.12" width="23.24" height="23.24"/><rect class="cls-2" x="100.86" y="220.21" width="131.69" height="12.91"/><polyline class="cls-2" points="201.57 144.46 201.57 171.15 165.42 171.15 165.42 54.95 201.57 54.95 201.57 113.48"/><rect class="cls-2" x="173.16" y="34.29" width="20.66" height="20.66"/><rect class="cls-2" x="173.16" y="171.15" width="20.66" height="10.33"/><path class="cls-2" d="M217.6,135A56.85,56.85,0,0,1,234,226.81"/><line class="cls-2" x1="216.55" y1="220.21" x2="216.55" y2="233.12"/><circle class="cls-2" cx="201.57" cy="129.83" r="12.91"/><circle class="cls-3" cx="201.57" cy="129.83" r="6.46"/><line class="cls-2" x1="174.43" y1="44.62" x2="191.24" y2="44.62"/><line class="cls-2" x1="165.42" y1="65.28" x2="201.57" y2="65.28"/></g></g></svg>