<svg xmlns="http://www.w3.org/2000/svg" xmlns:xlink="http://www.w3.org/1999/xlink" viewBox="0 0 325.67 325.67"><defs><style>.cls-1{fill:url(#未命名的渐变_3);}.cls-2{fill:none;stroke:#fff;stroke-linecap:round;stroke-linejoin:round;stroke-width:5px;}</style><linearGradient id="未命名的渐变_3" y1="162.83" x2="325.67" y2="162.83" gradientUnits="userSpaceOnUse"><stop offset="0" stop-color="#214b9e"/><stop offset="1" stop-color="#31bce7"/></linearGradient></defs><g id="Layer_2" data-name="Layer 2"><g id="图层_1" data-name="图层 1"><rect class="cls-1" width="325.67" height="325.67" rx="39.48"/><path class="cls-2" d="M165.11,71.57H228.8a13.65,13.65,0,0,1,13.65,13.64V188a66.2,66.2,0,0,1-30.24,55.6l-45.88,29.68a4.91,4.91,0,0,1-2.68.79H162a4.85,4.85,0,0,1-2.67-.79l-45.88-29.68A66.2,66.2,0,0,1,83.22,188V85.21A13.64,13.64,0,0,1,96.86,71.57h68.25Z"/><path class="cls-2" d="M118.62,231.67a47.46,47.46,0,0,1-21.76-40V91.18a4.93,4.93,0,0,1,4.93-4.93H223.87a4.93,4.93,0,0,1,4.93,4.93V191.67a47.45,47.45,0,0,1-21.75,40l-41.54,26.87a4.9,4.9,0,0,1-5.35,0Z"/><polygon class="cls-2" points="210.6 147.77 176.48 147.77 176.48 113.65 149.19 113.65 149.19 147.77 115.06 147.77 115.06 175.07 149.19 175.07 149.19 209.19 176.48 209.19 176.48 175.07 210.6 175.07 210.6 147.77"/></g></g></svg>