<svg xmlns="http://www.w3.org/2000/svg" xmlns:xlink="http://www.w3.org/1999/xlink" viewBox="0 0 325.67 325.67"><defs><style>.cls-1{fill:url(#未命名的渐变_3);}.cls-2{fill:none;stroke:#fff;stroke-linecap:round;stroke-linejoin:round;stroke-width:5px;}</style><linearGradient id="未命名的渐变_3" y1="162.83" x2="325.67" y2="162.83" gradientUnits="userSpaceOnUse"><stop offset="0" stop-color="#214b9e"/><stop offset="1" stop-color="#31bce7"/></linearGradient></defs><g id="Layer_2" data-name="Layer 2"><g id="图层_1" data-name="图层 1"><rect class="cls-1" width="325.67" height="325.67" rx="39.48"/><path class="cls-2" d="M87.42,177.29v-34.4a7.55,7.55,0,0,0-7.53-7.52h0a7.54,7.54,0,0,0-7.52,7.52v46.76a16.6,16.6,0,0,0,4.85,11.71l29.7,29.73A7.2,7.2,0,0,1,109,236.2v16.07"/><path class="cls-2" d="M105.09,205.29,87.6,189.7a7.54,7.54,0,0,1-1-10.59h0a7.55,7.55,0,0,1,10.59-1L133.54,207a7.23,7.23,0,0,1,2.74,5.67v39.64"/><path class="cls-2" d="M245.75,177.29v-34.4a7.54,7.54,0,0,1,7.52-7.52h0a7.54,7.54,0,0,1,7.52,7.52v46.76A16.59,16.59,0,0,1,256,201.36l-29.71,29.73a7.23,7.23,0,0,0-2.11,5.11v16.07"/><path class="cls-2" d="M228.08,205.29l17.49-15.59a7.55,7.55,0,0,0,1-10.59h0a7.56,7.56,0,0,0-10.6-1L199.63,207a7.23,7.23,0,0,0-2.74,5.67v39.64"/><path class="cls-2" d="M118.45,167.69h6.46a29.37,29.37,0,0,0,29.37-29.36V88.11a9.69,9.69,0,0,0-9.69-9.69h0c-19.3,0-36.12,24.67-34.95,52.86v27.6A8.81,8.81,0,0,0,118.45,167.69Z"/><path class="cls-2" d="M214.72,168.87h-6.47a29.37,29.37,0,0,1-29.36-29.37V89.28a9.69,9.69,0,0,1,9.69-9.69h0c19.3,0,36.12,24.67,34.95,52.86v27.61A8.82,8.82,0,0,1,214.72,168.87Z"/><path class="cls-2" d="M166.58,49.05V74.68a13,13,0,0,1-3.23,8.61l-9.07,10.4"/><path class="cls-2" d="M166,49.05V74.68a13.08,13.08,0,0,0,3.22,8.61l9.08,10.4"/><path class="cls-2" d="M179.16,94c8.5,5.27,12,15.75,14.06,25.54s3.38,20.23,9.5,28.14"/><path class="cls-2" d="M193.54,119.1c3.4-2.12,7.61,1,10.2,4.07s6.11,6.63,9.92,5.37"/><path class="cls-2" d="M152.78,94c-8.5,5.27-12,15.75-14.06,25.54s-3.39,20.23-9.51,28.14"/><path class="cls-2" d="M138.39,119.1c-3.4-2.12-7.6,1-10.2,4.07s-6.11,6.63-9.91,5.37"/><path class="cls-2" d="M177.53,211.93a14.09,14.09,0,1,1-7-5.63"/><line class="cls-2" x1="159.61" y1="219.38" x2="171.35" y2="219.38"/><line class="cls-2" x1="165.48" y1="213.5" x2="165.48" y2="225.25"/><circle class="cls-2" cx="175.66" cy="206.27" r="4.7"/><rect class="cls-2" x="100.87" y="253.44" width="42.29" height="11.75"/><rect class="cls-2" x="190.15" y="253.44" width="42.29" height="11.75"/></g></g></svg>