<svg xmlns="http://www.w3.org/2000/svg" viewBox="0 0 24.32 24.31"><defs><style>.cls-1{fill:#e5e5e5;}</style></defs><g id="Layer_2" data-name="Layer 2"><g id="图层_1" data-name="图层 1"><path class="cls-1" d="M2.1,16.72v6.54a1.05,1.05,0,0,1-2.1,0V16.72a1.05,1.05,0,0,1,2.1,0Zm6.65-4.9a1,1,0,0,0-1,1V23.26a1,1,0,1,0,2.09,0V12.87a1,1,0,0,0-1.05-1Zm7,3.85a1,1,0,0,0-1,1v6.54a1,1,0,1,0,2.09,0V16.72a1,1,0,0,0-1-1Zm7.52-3.85a1,1,0,0,0-1,1V23.26a1,1,0,0,0,2.1,0V12.87a1,1,0,0,0-1.05-1ZM23.41,0H18.48a.91.91,0,0,0,0,1.82h2.57L15.67,7.6,9.53,2A1,1,0,0,0,8.1,2L.32,9.57a1,1,0,0,0,.74,1.8,1.09,1.09,0,0,0,.73-.29L8.85,4.22,15,9.86a1.05,1.05,0,0,0,1.47-.07l6-6.46V6.25a.91.91,0,0,0,1.82,0V.91A.91.91,0,0,0,23.41,0Z"/></g></g></svg>