<svg xmlns="http://www.w3.org/2000/svg" viewBox="0 0 21.3 24.29"><defs><style>.cls-1{fill:#e5e5e5;}</style></defs><g id="Layer_2" data-name="Layer 2"><g id="图层_1" data-name="图层 1"><path class="cls-1" d="M16.76,5.67H4.62a.73.73,0,0,0,0,1.46H16.76a.73.73,0,0,0,0-1.46Zm0,5H4.62a.73.73,0,0,0,0,1.46H16.76a.73.73,0,0,0,0-1.46Z"/><path class="cls-1" d="M19.84,0H1.54A1.58,1.58,0,0,0,0,1.7V22.59a1.58,1.58,0,0,0,1.54,1.7H12.15a1.52,1.52,0,0,0,1.29-.73.08.08,0,0,0,.08-.08l7.29-7.37A1.36,1.36,0,0,0,21.3,15V1.7A1.52,1.52,0,0,0,19.84,0ZM13.68,21.46v-3.4a1.47,1.47,0,0,1,1.54-1.46h3.32ZM20,15a.17.17,0,0,1-.16.16H15.3A2.89,2.89,0,0,0,12.39,18v4.77a.17.17,0,0,1-.16.17H1.54a.6.6,0,0,1-.16-.33V1.7a.35.35,0,0,1,.16-.32h18.3A.56.56,0,0,1,20,1.7Z"/></g></g></svg>