<svg xmlns="http://www.w3.org/2000/svg" viewBox="0 0 24.32 24.34"><defs><style>.cls-1{fill:#e5e5e5;}</style></defs><g id="Layer_2" data-name="Layer 2"><g id="图层_1" data-name="图层 1"><path class="cls-1" d="M17.4,10.73a.8.8,0,0,0,.85.85.81.81,0,0,0,.85-.85A5.16,5.16,0,0,0,14,5.6a.8.8,0,0,0-.85.85A.8.8,0,0,0,14,7.3a3.46,3.46,0,0,1,3.43,3.43Zm3.41,0a.85.85,0,0,0,1.7,0A8.57,8.57,0,0,0,14,2.19a.8.8,0,0,0-.85.84.8.8,0,0,0,.85.85,6.88,6.88,0,0,1,6.85,6.85Zm-11.55-3a2.52,2.52,0,0,0,.18-3.42L6.79,1A2.56,2.56,0,0,0,3.2.55C3.12.63,3,.63,3,.72L.71,3c-2.22,2.22,1,8.22,6.68,14S19,25.8,21.24,23.66l2.31-2.32a2.48,2.48,0,0,0,0-3.58l-.17-.18L20,14.93a2.51,2.51,0,0,0-3.41.18l-1.45,1.45a22.21,22.21,0,0,1-4.11-3.17A21.13,21.13,0,0,1,7.91,9.28ZM8.06,5.43A.82.82,0,0,1,8,6.55l-1.89,2a.93.93,0,0,0-.18,1,22.7,22.7,0,0,0,3.77,5.05,21.92,21.92,0,0,0,5.05,3.76.9.9,0,0,0,1-.17l2-2a.79.79,0,0,1,1.12-.08l3.33,2.74a.08.08,0,0,1,.08.08.82.82,0,0,1,0,1.17l0,0L20,22.46c-1.12,1.12-6.41-1.72-11.46-6.67S.71,5.43,1.83,4.31L4.22,1.92a.85.85,0,0,1,1.2.17Z"/></g></g></svg>