<svg xmlns="http://www.w3.org/2000/svg" viewBox="0 0 27.32 24.16"><defs><style>.cls-1{fill:#e5e5e5;}</style></defs><g id="Layer_2" data-name="Layer 2"><g id="图层_1" data-name="图层 1"><path class="cls-1" d="M22.88,15.13a.87.87,0,0,1-.6-.25.85.85,0,0,1,0-1.2l3-3c.68-.68.15-1.51-.43-2.09L18.65,2.36a2.13,2.13,0,0,0-1-.67.77.77,0,0,0-.66.29l-6,6a2.1,2.1,0,0,0,2.51.08c1.07-1,2.62-2.62,2.63-2.64a.85.85,0,0,1,1.2-.05.86.86,0,0,1,0,1.2c-.07.06-1.63,1.75-2.77,2.77-1.5,1.31-3.85,1-5.49-.73a.83.83,0,0,1,0-1.18L15.73.78c1.16-1.16,2.7-1,4.11.38l6.22,6.22c1.51,1.51,1.68,3.24.43,4.48l-3,3a.85.85,0,0,1-.59.25Z"/><path class="cls-1" d="M13.68,24.16h-.37a3.43,3.43,0,0,1-2-1L4.59,16.39a13.41,13.41,0,0,1-2.14-2.81,13.54,13.54,0,0,0-.91-1.37l-.33-.4C.51,11,.08,10.42,0,9.85a.38.38,0,0,0,0-.1A3,3,0,0,1,1.06,7L6.45,1.63C7.66.42,9.08,1.11,10,1.6l.15.06.46.23a14.11,14.11,0,0,1,3.17,1.93A.84.84,0,1,1,12.7,5.09,12.59,12.59,0,0,0,9.89,3.42a5.4,5.4,0,0,0-.49-.23L9.25,3.1c-1.06-.53-1.35-.58-1.64-.28L2.25,8.21A1.42,1.42,0,0,0,1.7,9.57a.12.12,0,0,0,0,.08,6.7,6.7,0,0,0,.8,1.07c.11.14.24.29.34.43a12.94,12.94,0,0,1,1.05,1.56,11,11,0,0,0,1.87,2.48l6.75,6.75a1.83,1.83,0,0,0,1,.52.79.79,0,0,0,.58-.12c.33-.33,2-1.82,4.37-3.9,1.33-1.16,2.82-2.47,3-2.63s.88-1.13.08-1.93L15.3,7.65a.85.85,0,0,1,0-1.2.84.84,0,0,1,1.19,0l6.24,6.24a2.77,2.77,0,0,1,.76,2.6A3.74,3.74,0,0,1,22.65,17c-.19.18-1.23,1.09-3.06,2.7s-4,3.5-4.29,3.82a2.24,2.24,0,0,1-1.62.64Z"/><path class="cls-1" d="M20.71,17.76a.82.82,0,0,1-.6-.25l-3-3a.85.85,0,0,1,1.2-1.19l3,3a.84.84,0,0,1,.25.6.82.82,0,0,1-.25.59.76.76,0,0,1-.59.25ZM18.58,19.9a.81.81,0,0,1-.59-.25l-3-3a.85.85,0,1,1,1.2-1.2l3,3a.84.84,0,0,1,.25.6.82.82,0,0,1-.25.59.83.83,0,0,1-.6.25Zm-2.3,2.31a.87.87,0,0,1-.6-.25l-3-3a.84.84,0,0,1,1.19-1.19l3,3a.89.89,0,0,1,.24.6.87.87,0,0,1-.24.6.89.89,0,0,1-.6.25Z"/></g></g></svg>