<svg xmlns="http://www.w3.org/2000/svg" viewBox="0 0 20.99 24.16"><defs><style>.cls-1{fill:#e5e5e5;}</style></defs><g id="Layer_2" data-name="Layer 2"><g id="图层_1" data-name="图层 1"><path class="cls-1" d="M20.69,6.4,16.63.61A1.34,1.34,0,0,0,15.52,0H2A2.12,2.12,0,0,0,0,2.22V21.94a2.11,2.11,0,0,0,2,2.22H19a2.12,2.12,0,0,0,2-2.22V7.38a1.62,1.62,0,0,0-.3-1Zm-2,.3H15.61c-.16,0-.29-.18-.29-.39V1.91h.06ZM19,22.26H2a.31.31,0,0,1-.29-.32V2.23A.31.31,0,0,1,2,1.91H13.62v4.4a2.15,2.15,0,0,0,2,2.29H19.3V21.94a.33.33,0,0,1-.29.32Z"/><path class="cls-1" d="M9.93,3.5H3.12v7.63H9.93ZM8.23,9.22H4.82V5.41H8.23ZM3.12,14.31H17.31v1.27H3.12Zm0,3.18H17.31v1.27H3.12Z"/></g></g></svg>