<svg xmlns="http://www.w3.org/2000/svg" viewBox="0 0 23.27 24.47"><defs><style>.cls-1{fill:#e5e5e5;}</style></defs><g id="Layer_2" data-name="Layer 2"><g id="图层_1" data-name="图层 1"><path class="cls-1" d="M19.23,8.07A4,4,0,1,0,15.4,5.29L7,9.16a4,4,0,1,0-.45,5.92l5.12,3.66a4,4,0,1,0,.95-1.29l-5-3.6a4,4,0,0,0,.5-1.94,3.93,3.93,0,0,0-.24-1.38L16.2,6.69a4,4,0,0,0,3,1.38ZM4,14.34a2.43,2.43,0,1,1,2-3.77v0a2.38,2.38,0,0,1,.39,1.32A2.43,2.43,0,0,1,4,14.34ZM15.31,18a2.42,2.42,0,1,1-2,1s0,0,0,0l0,0a2.43,2.43,0,0,1,1.93-1ZM19.23,1.6a2.43,2.43,0,1,1-2.05,3.72l-.06-.09A2.43,2.43,0,0,1,19.23,1.6Z"/></g></g></svg>