<svg xmlns="http://www.w3.org/2000/svg" viewBox="0 0 24.38 24.38"><defs><style>.cls-1{fill:#e5e5e5;}</style></defs><g id="Layer_2" data-name="Layer 2"><g id="图层_1" data-name="图层 1"><path class="cls-1" d="M24.38,18.79a5.59,5.59,0,0,1-11.18,0V14.73a1.54,1.54,0,0,1,1.53-1.53h4.06a5.59,5.59,0,0,1,5.59,5.59Zm-2,0a3.55,3.55,0,0,0-3.55-3.55H15.24v3.55a3.55,3.55,0,0,0,7.1,0ZM0,18.79A5.59,5.59,0,0,1,5.59,13.2H9.65a1.53,1.53,0,0,1,1.08.45,1.55,1.55,0,0,1,.44,1.08v4.06A5.59,5.59,0,1,1,0,18.79Zm2,0a3.56,3.56,0,0,0,7.11,0V15.24H5.59A3.55,3.55,0,0,0,2,18.79ZM24.38,5.59a5.58,5.58,0,0,1-5.59,5.58H14.73a1.55,1.55,0,0,1-1.08-.44,1.53,1.53,0,0,1-.45-1.08V5.59a5.59,5.59,0,0,1,11.18,0Zm-2,0a3.55,3.55,0,1,0-7.1,0V9.14h3.55a3.55,3.55,0,0,0,3.55-3.55ZM0,5.59a5.59,5.59,0,1,1,11.17,0V9.65a1.5,1.5,0,0,1-1.52,1.52H5.59A5.58,5.58,0,0,1,0,5.59Zm2,0A3.55,3.55,0,0,0,5.59,9.14H9.14V5.59A3.56,3.56,0,1,0,2,5.59Z"/></g></g></svg>