<svg xmlns="http://www.w3.org/2000/svg" viewBox="0 0 22.14 24.36"><defs><style>.cls-1{fill:#e5e5e5;}</style></defs><g id="Layer_2" data-name="Layer 2"><g id="图层_1" data-name="图层 1"><path class="cls-1" d="M11.07,13.29a1.11,1.11,0,0,1,0-2.22c4.87,0,8.86-4.43,8.86-10a1.11,1.11,0,1,1,2.21,0c0,6.75-5,12.18-11.07,12.18Z"/><path class="cls-1" d="M11.07,11.07a1,1,0,0,1,1.11,1.11,1,1,0,0,1-1.11,1.11c-4.87,0-8.86,4.42-8.86,10a1,1,0,0,1-1.1,1.11A1,1,0,0,1,0,23.25C0,16.5,5,11.07,11.07,11.07Z"/><path class="cls-1" d="M10,5.54h2.22a1,1,0,0,1,1.11,1.1,1,1,0,0,1-1.11,1.11H10a1,1,0,0,1-1.1-1.11A1,1,0,0,1,10,5.54Z"/><path class="cls-1" d="M10,16.61h2.22a1.11,1.11,0,1,1,0,2.21H10a1.11,1.11,0,0,1,0-2.21Z"/><path class="cls-1" d="M6.64,1.11H15.5a1,1,0,0,1,1.11,1.1A1,1,0,0,1,15.5,3.32H6.64a1,1,0,0,1-1.1-1.11,1,1,0,0,1,1.1-1.1Z"/><path class="cls-1" d="M6.64,21H15.5a1.11,1.11,0,1,1,0,2.21H6.64a1.11,1.11,0,0,1,0-2.21Z"/><path class="cls-1" d="M22.14,23.25a1.11,1.11,0,1,1-2.21,0,10.39,10.39,0,0,0-2.55-7,1.08,1.08,0,0,1,.11-1.55,1.06,1.06,0,0,1,1.55.11,12.46,12.46,0,0,1,3.1,8.41Z"/><path class="cls-1" d="M0,1.11A1,1,0,0,1,1.11,0a1,1,0,0,1,1.1,1.11,10.21,10.21,0,0,0,2.55,7A1.1,1.1,0,0,1,3.1,9.52,12.51,12.51,0,0,1,0,1.11Z"/></g></g></svg>