<svg xmlns="http://www.w3.org/2000/svg" viewBox="0 0 125.48 136.21"><defs><style>.cls-1,.cls-2{fill:none;stroke:#217dc2;stroke-linecap:round;stroke-linejoin:round;stroke-width:5px;}.cls-2{stroke-dasharray:0.1 10.17;}</style></defs><g id="Layer_2" data-name="Layer 2"><g id="图层_1" data-name="图层 1"><line class="cls-1" x1="49.41" y1="52.58" x2="75.34" y2="52.58"/><line class="cls-1" x1="62.37" y1="39.61" x2="62.37" y2="65.54"/><circle class="cls-1" cx="62.37" cy="52.58" r="26.47"/><path class="cls-2" d="M98,47.59A36,36,0,1,1,57.38,17,36,36,0,0,1,98,47.59Z"/><line class="cls-1" x1="9.32" y1="94.16" x2="10.74" y2="94.52"/><line class="cls-1" x1="20.7" y1="97.08" x2="22.13" y2="97.44"/><line class="cls-1" x1="17.37" y1="89.4" x2="17" y2="90.82"/><line class="cls-1" x1="14.44" y1="100.78" x2="14.08" y2="102.2"/><line class="cls-1" x1="12.36" y1="90.11" x2="13.11" y2="91.37"/><line class="cls-1" x1="18.34" y1="100.23" x2="19.09" y2="101.49"/><line class="cls-1" x1="21.41" y1="92.43" x2="20.15" y2="93.18"/><line class="cls-1" x1="11.3" y1="98.42" x2="10.03" y2="99.17"/><line class="cls-1" x1="104.82" y1="101.5" x2="106.25" y2="101.87"/><line class="cls-1" x1="116.21" y1="104.42" x2="117.63" y2="104.79"/><line class="cls-1" x1="112.87" y1="96.74" x2="112.51" y2="98.17"/><line class="cls-1" x1="109.95" y1="108.13" x2="109.58" y2="109.55"/><line class="cls-1" x1="107.86" y1="97.45" x2="108.61" y2="98.72"/><line class="cls-1" x1="113.84" y1="107.57" x2="114.59" y2="108.84"/><line class="cls-1" x1="116.92" y1="99.78" x2="115.65" y2="100.53"/><line class="cls-1" x1="106.8" y1="105.76" x2="105.54" y2="106.51"/><path class="cls-1" d="M96.6,9.24a5.87,5.87,0,1,1,6.67,4.95"/><path class="cls-1" d="M81.73,121.85h21.08a1.24,1.24,0,0,1,.53.12l19,9.5a1.18,1.18,0,0,1-.53,2.24H3.69a1.18,1.18,0,0,1-.53-2.24l19-9.5a1.24,1.24,0,0,1,.53-.12H42.75"/><path class="cls-1" d="M62.74,126.59h0l-39.36-55C8.75,42.35,30,7.93,62.74,7.93h0c32.71,0,54,34.42,39.36,63.68Z"/></g></g></svg>